<?xml version="1.0" ?><!DOCTYPE svg  PUBLIC '-//W3C//DTD SVG 1.1//EN'  'http://www.w3.org/Graphics/SVG/1.1/DTD/svg11.dtd'><svg enable-background="new 0 0 512 512" height="512px" id="Layer_1" version="1.1" viewBox="0 0 512 512" width="512px" xml:space="preserve" xmlns="http://www.w3.org/2000/svg" xmlns:xlink="http://www.w3.org/1999/xlink"><g><path clip-rule="evenodd" d="M25.701,0h460.897C500.509,0,512,11.492,512,25.707v460.892   c0,13.91-11.491,25.401-25.401,25.401H25.701C11.492,512,0,500.509,0,486.599V25.707C0,11.492,11.492,0,25.701,0L25.701,0z    M307.258,120.063c0,21.169,17.237,38.407,38.712,38.407c21.165,0,38.402-17.238,38.402-38.407   c0-21.475-17.237-38.712-38.402-38.712C324.495,81.351,307.258,98.589,307.258,120.063L307.258,120.063z M215.624,87.702   c-49.904,0-82.261,29.639-88.606,60.182c-0.609,3.632-1.209,7.26-1.209,10.887v28.43H92.233v56.554h33.576v128.527H92.233v58.367   c48.695,0,97.379,0,146.074,0v-58.367h-33.875V243.754h102.226v128.527h-32.966v58.367c48.694,0,97.679,0,146.374,0v-58.367   h-34.785V187.2H204.432v-16.938c0-13.91,13.61-22.378,25.102-22.378h28.119V87.702H215.624z" fill="#010101" fill-rule="evenodd"/></g></svg>