<svg width="169" height="115" viewBox="0 0 169 115" fill="none" xmlns="http://www.w3.org/2000/svg">
<path d="M38.4648 79H29.9219V25H38.4648V79ZM46.1992 59.6289C46.1992 55.9023 46.9375 52.5508 48.4141 49.5742C49.8906 46.5742 51.9648 44.2773 54.6367 42.6836C57.3086 41.0664 60.3789 40.2578 63.8477 40.2578C68.9805 40.2578 73.1406 41.9102 76.3281 45.2148C79.5391 48.5195 81.2734 52.9023 81.5312 58.3633L81.5664 60.3672C81.5664 64.1172 80.8398 67.4688 79.3867 70.4219C77.957 73.375 75.8945 75.6602 73.1992 77.2773C70.5273 78.8945 67.4336 79.7031 63.918 79.7031C58.5508 79.7031 54.25 77.9219 51.0156 74.3594C47.8047 70.7734 46.1992 66.0039 46.1992 60.0508V59.6289ZM54.7422 60.3672C54.7422 64.2812 55.5508 67.3516 57.168 69.5781C58.7852 71.7812 61.0352 72.8828 63.918 72.8828C66.8008 72.8828 69.0391 71.7578 70.6328 69.5078C72.25 67.2578 73.0586 63.9648 73.0586 59.6289C73.0586 55.7852 72.2266 52.7383 70.5625 50.4883C68.9219 48.2383 66.6836 47.1133 63.8477 47.1133C61.0586 47.1133 58.8438 48.2266 57.2031 50.4531C55.5625 52.6562 54.7422 55.9609 54.7422 60.3672ZM87.1914 59.6641C87.1914 53.7109 88.5508 48.9883 91.2695 45.4961C93.9883 42.0039 97.668 40.2578 102.309 40.2578C106.551 40.2578 109.914 41.7461 112.398 44.7227L112.891 40.9609H120.484V93.625H111.941V75.7656C109.457 78.3906 106.223 79.7031 102.238 79.7031C97.6914 79.7031 94.0469 77.9336 91.3047 74.3945C88.5625 70.832 87.1914 65.9219 87.1914 59.6641ZM95.7344 60.4023C95.7344 64.293 96.4961 67.3516 98.0195 69.5781C99.5664 71.7812 101.699 72.8828 104.418 72.8828C107.793 72.8828 110.301 71.4414 111.941 68.5586V51.2617C110.301 48.4961 107.816 47.1133 104.488 47.1133C101.77 47.1133 99.625 48.2031 98.0547 50.3828C96.5078 52.5625 95.7344 55.9023 95.7344 60.4023ZM138.801 79H130.258V40.9609H138.801V79ZM129.73 31.082C129.73 29.7695 130.141 28.6797 130.961 27.8125C131.805 26.9453 133 26.5117 134.547 26.5117C136.094 26.5117 137.289 26.9453 138.133 27.8125C138.977 28.6797 139.398 29.7695 139.398 31.082C139.398 32.3711 138.977 33.4492 138.133 34.3164C137.289 35.1602 136.094 35.582 134.547 35.582C133 35.582 131.805 35.1602 130.961 34.3164C130.141 33.4492 129.73 32.3711 129.73 31.082Z" fill="black"/>
<path d="M50 96C129 96 50 96 101 96" stroke="black" stroke-width="6"/>
<path d="M118 25H53" stroke="black" stroke-width="6"/>
<path d="M24.5156 18.125H15.5625V96.5H24.5156V103.625H6.84375V11H24.5156V18.125Z" fill="black"/>
<path d="M144.484 96.875H153.438V18.5H144.484V11.375H162.156V104H144.484V96.875Z" fill="black"/>
</svg>
